# xmcd
#
# Track frame offsets:
#	150
#	17664
#	32476
#	52108
#	74512
#	96164
#	114193
#	133506
#	157248
#	177799
#	197807
#	217049
#	237698
#	255992
#	287020
#	303337
#	325435
#
# Disc length: 4643 seconds
#
# Revision: 0
# Processed by: cddbd v1.5.2PL0 Copyright (c) Steve Scherf et al.
# Submitted via: dBpowerAMP V4.0
#
DISCID=fa122111
DTITLE=Various Artist - Non Stop Volume 150
DYEAR=2008
DGENRE=Blues
TTITLE0=A Woman Knows-Willy Clayton
TTITLE1=Mr Right-Roni
TTITLE2=Come Back Kinda Love-Roni
TTITLE3=What if He Knew-Floyd Taylor
TTITLE4=Southern Soul Party-Floyd Taylor
TTITLE5=For Your Love-Sir Charles
TTITLE6=One More Time-Sir Charles
TTITLE7=Take Care Momma-Sir Charles
TTITLE8=After Party-David Brinston
TTITLE9=Come Back and Do It Right-David Brinston
TTITLE10=Old Woman &Younger Man- Pat Cooley
TTITLE11=Pop That Middle-Easley
TTITLE12=My Give a Damn- Latimore
TTITLE13=Can We Talk About Love-Vince Hutchison
TTITLE14=Fire-Labrado
TTITLE15=All My Money Gone-OB
TTITLE16=Try Me- T K Soul 
EXTD=
EXTT0=
EXTT1=
EXTT2=
EXTT3=
EXTT4=
EXTT5=
EXTT6=
EXTT7=
EXTT8=
EXTT9=
EXTT10=
EXTT11=
EXTT12=
EXTT13=
EXTT14=
EXTT15=
EXTT16=
PLAYORDER=
